<mxfile host="app.diagrams.net" modified="2023-04-03T16:44:41.766Z" agent="5.0 (X11; Linux x86_64) AppleWebKit/537.36 (KHTML, like Gecko) Chrome/107.0.0.0 Safari/537.36" etag="0mBS7QNeUA-Km7sjjvGK" version="21.0.10" type="github">
  <diagram id="C5RBs43oDa-KdzZeNtuy" name="Page-1">
    <mxGraphModel dx="1042" dy="627" grid="1" gridSize="10" guides="1" tooltips="1" connect="1" arrows="1" fold="1" page="1" pageScale="1" pageWidth="827" pageHeight="1169" math="0" shadow="0">
      <root>
        <mxCell id="WIyWlLk6GJQsqaUBKTNV-0" />
        <mxCell id="WIyWlLk6GJQsqaUBKTNV-1" parent="WIyWlLk6GJQsqaUBKTNV-0" />
        <mxCell id="RIOaeRhkT2rlpLEp14ME-3" value="Unidade Central&lt;br&gt;de Processamento&lt;br&gt;&lt;br&gt;&lt;br&gt;&lt;br&gt;&lt;br&gt;&lt;br&gt;&lt;br&gt;&lt;br&gt;&lt;br&gt;&lt;br&gt;" style="rounded=1;whiteSpace=wrap;html=1;fontSize=20;glass=0;strokeWidth=4;shadow=0;fontStyle=1" vertex="1" parent="WIyWlLk6GJQsqaUBKTNV-1">
          <mxGeometry x="280" y="40" width="240" height="320" as="geometry" />
        </mxCell>
        <mxCell id="RIOaeRhkT2rlpLEp14ME-18" style="edgeStyle=orthogonalEdgeStyle;rounded=0;orthogonalLoop=1;jettySize=auto;html=1;entryX=0;entryY=0.75;entryDx=0;entryDy=0;strokeWidth=3;" edge="1" parent="WIyWlLk6GJQsqaUBKTNV-1" source="WIyWlLk6GJQsqaUBKTNV-3" target="RIOaeRhkT2rlpLEp14ME-0">
          <mxGeometry relative="1" as="geometry" />
        </mxCell>
        <mxCell id="WIyWlLk6GJQsqaUBKTNV-3" value="Memória&lt;br style=&quot;font-size: 20px;&quot;&gt;Principal" style="rounded=1;whiteSpace=wrap;html=1;fontSize=20;glass=0;strokeWidth=4;shadow=0;fontStyle=1" parent="WIyWlLk6GJQsqaUBKTNV-1" vertex="1">
          <mxGeometry x="40" y="40" width="160" height="320" as="geometry" />
        </mxCell>
        <mxCell id="RIOaeRhkT2rlpLEp14ME-17" style="edgeStyle=orthogonalEdgeStyle;rounded=0;orthogonalLoop=1;jettySize=auto;html=1;exitX=0;exitY=0.25;exitDx=0;exitDy=0;entryX=1.006;entryY=0.375;entryDx=0;entryDy=0;entryPerimeter=0;strokeWidth=3;" edge="1" parent="WIyWlLk6GJQsqaUBKTNV-1" source="RIOaeRhkT2rlpLEp14ME-0" target="WIyWlLk6GJQsqaUBKTNV-3">
          <mxGeometry relative="1" as="geometry" />
        </mxCell>
        <mxCell id="RIOaeRhkT2rlpLEp14ME-20" style="edgeStyle=orthogonalEdgeStyle;rounded=0;orthogonalLoop=1;jettySize=auto;html=1;exitX=1;exitY=0.75;exitDx=0;exitDy=0;entryX=0;entryY=0.5;entryDx=0;entryDy=0;strokeWidth=3;" edge="1" parent="WIyWlLk6GJQsqaUBKTNV-1" source="RIOaeRhkT2rlpLEp14ME-0" target="RIOaeRhkT2rlpLEp14ME-2">
          <mxGeometry relative="1" as="geometry" />
        </mxCell>
        <mxCell id="RIOaeRhkT2rlpLEp14ME-21" style="edgeStyle=orthogonalEdgeStyle;rounded=0;orthogonalLoop=1;jettySize=auto;html=1;exitX=0;exitY=0.375;exitDx=0;exitDy=0;entryX=1;entryY=0.25;entryDx=0;entryDy=0;exitPerimeter=0;strokeWidth=3;" edge="1" parent="WIyWlLk6GJQsqaUBKTNV-1" source="RIOaeRhkT2rlpLEp14ME-2" target="RIOaeRhkT2rlpLEp14ME-0">
          <mxGeometry relative="1" as="geometry" />
        </mxCell>
        <mxCell id="RIOaeRhkT2rlpLEp14ME-24" style="edgeStyle=orthogonalEdgeStyle;rounded=0;orthogonalLoop=1;jettySize=auto;html=1;exitX=0.25;exitY=1;exitDx=0;exitDy=0;entryX=0.25;entryY=0;entryDx=0;entryDy=0;strokeWidth=3;" edge="1" parent="WIyWlLk6GJQsqaUBKTNV-1" source="RIOaeRhkT2rlpLEp14ME-0" target="RIOaeRhkT2rlpLEp14ME-1">
          <mxGeometry relative="1" as="geometry" />
        </mxCell>
        <mxCell id="RIOaeRhkT2rlpLEp14ME-0" value="Unidade de Lógica e Aritmética" style="rounded=1;whiteSpace=wrap;html=1;fontSize=20;glass=0;strokeWidth=3;shadow=0;fontStyle=1" vertex="1" parent="WIyWlLk6GJQsqaUBKTNV-1">
          <mxGeometry x="320" y="140" width="160" height="80" as="geometry" />
        </mxCell>
        <mxCell id="RIOaeRhkT2rlpLEp14ME-14" style="edgeStyle=orthogonalEdgeStyle;rounded=0;orthogonalLoop=1;jettySize=auto;html=1;exitX=0;exitY=0.25;exitDx=0;exitDy=0;entryX=1;entryY=0.75;entryDx=0;entryDy=0;strokeWidth=3;" edge="1" parent="WIyWlLk6GJQsqaUBKTNV-1" source="RIOaeRhkT2rlpLEp14ME-1" target="WIyWlLk6GJQsqaUBKTNV-3">
          <mxGeometry relative="1" as="geometry" />
        </mxCell>
        <mxCell id="RIOaeRhkT2rlpLEp14ME-25" style="edgeStyle=orthogonalEdgeStyle;rounded=0;orthogonalLoop=1;jettySize=auto;html=1;exitX=0.75;exitY=0;exitDx=0;exitDy=0;entryX=0.75;entryY=1;entryDx=0;entryDy=0;strokeWidth=3;" edge="1" parent="WIyWlLk6GJQsqaUBKTNV-1" source="RIOaeRhkT2rlpLEp14ME-1" target="RIOaeRhkT2rlpLEp14ME-0">
          <mxGeometry relative="1" as="geometry" />
        </mxCell>
        <mxCell id="RIOaeRhkT2rlpLEp14ME-1" value="Unidade de Controle" style="rounded=1;whiteSpace=wrap;html=1;fontSize=20;glass=0;strokeWidth=3;shadow=0;fontStyle=1" vertex="1" parent="WIyWlLk6GJQsqaUBKTNV-1">
          <mxGeometry x="320" y="260" width="160" height="80" as="geometry" />
        </mxCell>
        <mxCell id="RIOaeRhkT2rlpLEp14ME-2" value="Dispositivos de Entrada e Saída" style="rounded=1;whiteSpace=wrap;html=1;fontSize=20;glass=0;strokeWidth=4;shadow=0;fontStyle=1" vertex="1" parent="WIyWlLk6GJQsqaUBKTNV-1">
          <mxGeometry x="600" y="40" width="160" height="320" as="geometry" />
        </mxCell>
        <mxCell id="RIOaeRhkT2rlpLEp14ME-16" value="" style="endArrow=classic;html=1;rounded=0;entryX=-0.012;entryY=0.625;entryDx=0;entryDy=0;entryPerimeter=0;strokeWidth=3;" edge="1" parent="WIyWlLk6GJQsqaUBKTNV-1" target="RIOaeRhkT2rlpLEp14ME-1">
          <mxGeometry width="50" height="50" relative="1" as="geometry">
            <mxPoint x="200" y="310" as="sourcePoint" />
            <mxPoint x="280" y="310" as="targetPoint" />
          </mxGeometry>
        </mxCell>
      </root>
    </mxGraphModel>
  </diagram>
</mxfile>
